<mxfile host="app.diagrams.net" modified="2023-03-23T18:46:47.550Z" agent="Mozilla/5.0 (Windows NT 10.0; Win64; x64) AppleWebKit/537.36 (KHTML, like Gecko) Chrome/110.0.0.0 Safari/537.36 OPR/96.0.0.0 (Edition std-1)" etag="uqFjSfGiPLc-KCtkGEuQ" version="21.1.0" type="device">
  <diagram name="PÃ¡gina-1" id="XZ4XPVDhfV-WvKzkARn0">
    <mxGraphModel dx="1441" dy="786" grid="1" gridSize="10" guides="1" tooltips="1" connect="1" arrows="1" fold="1" page="1" pageScale="1" pageWidth="1169" pageHeight="827" math="0" shadow="0">
      <root>
        <mxCell id="0" />
        <mxCell id="1" parent="0" />
        <mxCell id="vk8rcurgkz79nQ1yW3bX-1" value="cliente" style="html=1;overflow=block;blockSpacing=1;whiteSpace=wrap;fontSize=13;fontColor=#333333;spacing=9;strokeColor=#5e5e5e;strokeOpacity=100;rounded=1;absoluteArcSize=1;arcSize=9;strokeWidth=2.3;lucidId=6ZgIMSgs36zP;" vertex="1" parent="1">
          <mxGeometry x="300" y="135" width="120" height="165" as="geometry" />
        </mxCell>
        <mxCell id="vk8rcurgkz79nQ1yW3bX-2" value="" style="html=1;overflow=block;blockSpacing=1;whiteSpace=wrap;ellipse;fontSize=13;spacing=3.8;strokeColor=#5e5e5e;strokeOpacity=100;fillOpacity=100;rounded=1;absoluteArcSize=1;arcSize=9;fillColor=#1071e5;strokeWidth=2.3;lucidId=y0gIY.6DdLOU;" vertex="1" parent="1">
          <mxGeometry x="165" y="135" width="30" height="30" as="geometry" />
        </mxCell>
        <mxCell id="vk8rcurgkz79nQ1yW3bX-3" value="" style="html=1;overflow=block;blockSpacing=1;whiteSpace=wrap;ellipse;fontSize=13;spacing=3.8;strokeColor=#5e5e5e;strokeOpacity=100;fillOpacity=100;rounded=1;absoluteArcSize=1;arcSize=9;fillColor=#ffffff;strokeWidth=2.3;lucidId=U1gIRu4XVlX4;" vertex="1" parent="1">
          <mxGeometry x="165" y="180" width="30" height="30" as="geometry" />
        </mxCell>
        <mxCell id="vk8rcurgkz79nQ1yW3bX-4" value="" style="html=1;overflow=block;blockSpacing=1;whiteSpace=wrap;ellipse;fontSize=13;spacing=3.8;strokeColor=#5e5e5e;strokeOpacity=100;fillOpacity=100;rounded=1;absoluteArcSize=1;arcSize=9;fillColor=#ffffff;strokeWidth=2.3;lucidId=X1gIoDzGECy_;" vertex="1" parent="1">
          <mxGeometry x="165" y="219" width="30" height="30" as="geometry" />
        </mxCell>
        <mxCell id="vk8rcurgkz79nQ1yW3bX-5" value="" style="html=1;overflow=block;blockSpacing=1;whiteSpace=wrap;ellipse;fontSize=13;spacing=3.8;strokeColor=#5e5e5e;strokeOpacity=100;fillOpacity=100;rounded=1;absoluteArcSize=1;arcSize=9;fillColor=#ffffff;strokeWidth=2.3;lucidId=Z1gIw9HMOMcT;" vertex="1" parent="1">
          <mxGeometry x="165" y="266" width="30" height="30" as="geometry" />
        </mxCell>
        <mxCell id="vk8rcurgkz79nQ1yW3bX-6" value="" style="html=1;jettySize=18;whiteSpace=wrap;fontSize=13;strokeColor=#5E5E5E;strokeWidth=1.5;rounded=1;arcSize=12;edgeStyle=orthogonalEdgeStyle;startArrow=none;endArrow=none;exitX=1.038;exitY=0.5;exitPerimeter=0;entryX=-0.009;entryY=0.091;entryPerimeter=0;lucidId=P2gIJ5UdrtEZ;" edge="1" parent="1" source="vk8rcurgkz79nQ1yW3bX-2" target="vk8rcurgkz79nQ1yW3bX-1">
          <mxGeometry width="100" height="100" relative="1" as="geometry">
            <Array as="points" />
          </mxGeometry>
        </mxCell>
        <mxCell id="vk8rcurgkz79nQ1yW3bX-7" value="" style="html=1;jettySize=18;whiteSpace=wrap;fontSize=13;strokeColor=#5E5E5E;strokeWidth=1.5;rounded=1;arcSize=12;edgeStyle=orthogonalEdgeStyle;startArrow=none;endArrow=none;exitX=1.038;exitY=0.5;exitPerimeter=0;entryX=-0.009;entryY=0.602;entryPerimeter=0;lucidId=~2gIYlXDy5he;" edge="1" parent="1" source="vk8rcurgkz79nQ1yW3bX-4" target="vk8rcurgkz79nQ1yW3bX-1">
          <mxGeometry width="100" height="100" relative="1" as="geometry">
            <Array as="points" />
          </mxGeometry>
        </mxCell>
        <mxCell id="vk8rcurgkz79nQ1yW3bX-8" value="" style="html=1;jettySize=18;whiteSpace=wrap;fontSize=13;strokeColor=#5E5E5E;strokeWidth=1.5;rounded=1;arcSize=12;edgeStyle=orthogonalEdgeStyle;startArrow=none;endArrow=none;exitX=1.038;exitY=0.5;exitPerimeter=0;entryX=-0.009;entryY=0.887;entryPerimeter=0;lucidId=q3gIG1XG_DwK;" edge="1" parent="1" source="vk8rcurgkz79nQ1yW3bX-5" target="vk8rcurgkz79nQ1yW3bX-1">
          <mxGeometry width="100" height="100" relative="1" as="geometry">
            <Array as="points" />
          </mxGeometry>
        </mxCell>
        <mxCell id="vk8rcurgkz79nQ1yW3bX-9" value="id" style="html=1;overflow=block;blockSpacing=1;whiteSpace=wrap;fontSize=13;fontColor=#333333;spacing=3.8;strokeOpacity=0;fillOpacity=0;rounded=1;absoluteArcSize=1;arcSize=9;fillColor=#ffffff;strokeWidth=2.3;lucidId=L3gIYtt11FHy;" vertex="1" parent="1">
          <mxGeometry x="203" y="120" width="75" height="45" as="geometry" />
        </mxCell>
        <mxCell id="vk8rcurgkz79nQ1yW3bX-10" value="" style="html=1;jettySize=18;whiteSpace=wrap;fontSize=13;strokeColor=#5E5E5E;strokeWidth=1.5;rounded=1;arcSize=12;edgeStyle=orthogonalEdgeStyle;startArrow=none;endArrow=none;exitX=1.038;exitY=0.5;exitPerimeter=0;entryX=-0.009;entryY=0.364;entryPerimeter=0;lucidId=R4gIibciJlmU;" edge="1" parent="1" source="vk8rcurgkz79nQ1yW3bX-3" target="vk8rcurgkz79nQ1yW3bX-1">
          <mxGeometry width="100" height="100" relative="1" as="geometry">
            <Array as="points" />
          </mxGeometry>
        </mxCell>
        <mxCell id="vk8rcurgkz79nQ1yW3bX-11" value="nome" style="html=1;overflow=block;blockSpacing=1;whiteSpace=wrap;fontSize=13;fontColor=#333333;spacing=3.8;strokeOpacity=0;fillOpacity=0;rounded=1;absoluteArcSize=1;arcSize=9;fillColor=#ffffff;strokeWidth=2.3;lucidId=04gI~aovaRTN;" vertex="1" parent="1">
          <mxGeometry x="195" y="165" width="90" height="45" as="geometry" />
        </mxCell>
        <mxCell id="vk8rcurgkz79nQ1yW3bX-12" value="numero" style="html=1;overflow=block;blockSpacing=1;whiteSpace=wrap;fontSize=13;fontColor=#333333;spacing=3.8;strokeOpacity=0;fillOpacity=0;rounded=1;absoluteArcSize=1;arcSize=9;fillColor=#ffffff;strokeWidth=2.3;lucidId=c5gIjU2mhB3S;" vertex="1" parent="1">
          <mxGeometry x="210" y="204" width="60" height="45" as="geometry" />
        </mxCell>
        <mxCell id="vk8rcurgkz79nQ1yW3bX-13" value="endereco" style="html=1;overflow=block;blockSpacing=1;whiteSpace=wrap;fontSize=13;fontColor=#333333;spacing=3.8;strokeOpacity=0;fillOpacity=0;rounded=1;absoluteArcSize=1;arcSize=9;fillColor=#ffffff;strokeWidth=2.3;lucidId=p5gI2Lqk1p6A;" vertex="1" parent="1">
          <mxGeometry x="203" y="249" width="75" height="45" as="geometry" />
        </mxCell>
        <mxCell id="vk8rcurgkz79nQ1yW3bX-14" value="pode ter" style="html=1;overflow=block;blockSpacing=1;whiteSpace=wrap;rhombus;fontSize=13;fontColor=#333333;spacing=3.8;strokeColor=#5e5e5e;strokeOpacity=100;rounded=1;absoluteArcSize=1;arcSize=9;strokeWidth=2.3;lucidId=c7gIYVI8OF~2;" vertex="1" parent="1">
          <mxGeometry x="585" y="173" width="120" height="90" as="geometry" />
        </mxCell>
        <mxCell id="vk8rcurgkz79nQ1yW3bX-15" value="" style="html=1;jettySize=18;whiteSpace=wrap;fontSize=13;strokeColor=#5E5E5E;strokeWidth=1.5;rounded=1;arcSize=12;edgeStyle=orthogonalEdgeStyle;startArrow=none;endArrow=none;exitX=1.009;exitY=0.5;exitPerimeter=0;entryX=0.009;entryY=0.5;entryPerimeter=0;lucidId=i7gIm4Bv47mf;" edge="1" parent="1" source="vk8rcurgkz79nQ1yW3bX-1" target="vk8rcurgkz79nQ1yW3bX-14">
          <mxGeometry width="100" height="100" relative="1" as="geometry">
            <Array as="points" />
          </mxGeometry>
        </mxCell>
        <mxCell id="vk8rcurgkz79nQ1yW3bX-16" value="1" style="html=1;overflow=block;blockSpacing=1;whiteSpace=wrap;fontSize=13;fontColor=#333333;spacing=3.8;strokeOpacity=0;fillOpacity=0;rounded=1;absoluteArcSize=1;arcSize=9;fillColor=#ffffff;strokeWidth=2.3;lucidId=t7gIAZHezs-l;" vertex="1" parent="1">
          <mxGeometry x="420" y="180" width="30" height="45" as="geometry" />
        </mxCell>
        <mxCell id="vk8rcurgkz79nQ1yW3bX-17" value="apolice" style="html=1;overflow=block;blockSpacing=1;whiteSpace=wrap;fontSize=13;fontColor=#333333;spacing=9;strokeColor=#5e5e5e;strokeOpacity=100;rounded=1;absoluteArcSize=1;arcSize=9;strokeWidth=2.3;lucidId=87gIJYlKAM6I;" vertex="1" parent="1">
          <mxGeometry x="870" y="135" width="120" height="165" as="geometry" />
        </mxCell>
        <mxCell id="vk8rcurgkz79nQ1yW3bX-18" value="" style="html=1;overflow=block;blockSpacing=1;whiteSpace=wrap;ellipse;fontSize=13;spacing=3.8;strokeColor=#5e5e5e;strokeOpacity=100;fillOpacity=100;rounded=1;absoluteArcSize=1;arcSize=9;fillColor=#1071e5;strokeWidth=2.3;lucidId=A8gIoVH9AqYO;" vertex="1" parent="1">
          <mxGeometry x="1095" y="135" width="30" height="30" as="geometry" />
        </mxCell>
        <mxCell id="vk8rcurgkz79nQ1yW3bX-19" value="" style="html=1;overflow=block;blockSpacing=1;whiteSpace=wrap;ellipse;fontSize=13;spacing=3.8;strokeColor=#5e5e5e;strokeOpacity=100;fillOpacity=100;rounded=1;absoluteArcSize=1;arcSize=9;fillColor=#ffffff;strokeWidth=2.3;lucidId=A8gI3Ym9vsvt;" vertex="1" parent="1">
          <mxGeometry x="1095" y="200" width="30" height="30" as="geometry" />
        </mxCell>
        <mxCell id="vk8rcurgkz79nQ1yW3bX-20" value="" style="html=1;overflow=block;blockSpacing=1;whiteSpace=wrap;ellipse;fontSize=13;spacing=3.8;strokeColor=#5e5e5e;strokeOpacity=100;fillOpacity=100;rounded=1;absoluteArcSize=1;arcSize=9;fillColor=#ffffff;strokeWidth=2.3;lucidId=A8gImc9wVkI1;" vertex="1" parent="1">
          <mxGeometry x="1095" y="264" width="30" height="30" as="geometry" />
        </mxCell>
        <mxCell id="vk8rcurgkz79nQ1yW3bX-21" value="id" style="html=1;overflow=block;blockSpacing=1;whiteSpace=wrap;fontSize=13;fontColor=#333333;spacing=3.8;strokeOpacity=0;fillOpacity=0;rounded=1;absoluteArcSize=1;arcSize=9;fillColor=#ffffff;strokeWidth=2.3;lucidId=A8gI_zmLPqdN;" vertex="1" parent="1">
          <mxGeometry x="1005" y="120" width="75" height="45" as="geometry" />
        </mxCell>
        <mxCell id="vk8rcurgkz79nQ1yW3bX-22" value="numero" style="html=1;overflow=block;blockSpacing=1;whiteSpace=wrap;fontSize=13;fontColor=#333333;spacing=3.8;strokeOpacity=0;fillOpacity=0;rounded=1;absoluteArcSize=1;arcSize=9;fillColor=#ffffff;strokeWidth=2.3;lucidId=A8gIK8_YkWrz;" vertex="1" parent="1">
          <mxGeometry x="998" y="185" width="90" height="45" as="geometry" />
        </mxCell>
        <mxCell id="vk8rcurgkz79nQ1yW3bX-23" value="valor" style="html=1;overflow=block;blockSpacing=1;whiteSpace=wrap;fontSize=13;fontColor=#333333;spacing=3.8;strokeOpacity=0;fillOpacity=0;rounded=1;absoluteArcSize=1;arcSize=9;fillColor=#ffffff;strokeWidth=2.3;lucidId=A8gId1hWZIyT;" vertex="1" parent="1">
          <mxGeometry x="1013" y="249" width="60" height="45" as="geometry" />
        </mxCell>
        <mxCell id="vk8rcurgkz79nQ1yW3bX-24" value="" style="html=1;jettySize=18;whiteSpace=wrap;fontSize=13;strokeColor=#5E5E5E;strokeWidth=1.5;rounded=1;arcSize=12;edgeStyle=orthogonalEdgeStyle;startArrow=none;endArrow=none;exitX=-0.038;exitY=0.5;exitPerimeter=0;entryX=1.009;entryY=0.092;entryPerimeter=0;lucidId=98gItbjZIsB5;" edge="1" parent="1" source="vk8rcurgkz79nQ1yW3bX-18" target="vk8rcurgkz79nQ1yW3bX-17">
          <mxGeometry width="100" height="100" relative="1" as="geometry">
            <Array as="points" />
          </mxGeometry>
        </mxCell>
        <mxCell id="vk8rcurgkz79nQ1yW3bX-25" value="" style="html=1;jettySize=18;whiteSpace=wrap;fontSize=13;strokeColor=#5E5E5E;strokeWidth=1.5;rounded=1;arcSize=12;edgeStyle=orthogonalEdgeStyle;startArrow=none;endArrow=none;exitX=-0.009;exitY=0.5;exitPerimeter=0;entryX=0.991;entryY=0.5;entryPerimeter=0;lucidId=N-gIqGd5k.dr;" edge="1" parent="1" source="vk8rcurgkz79nQ1yW3bX-17" target="vk8rcurgkz79nQ1yW3bX-14">
          <mxGeometry width="100" height="100" relative="1" as="geometry">
            <Array as="points" />
          </mxGeometry>
        </mxCell>
        <mxCell id="vk8rcurgkz79nQ1yW3bX-26" value="" style="html=1;jettySize=18;whiteSpace=wrap;fontSize=13;strokeColor=#5E5E5E;strokeWidth=1.5;rounded=1;arcSize=12;edgeStyle=orthogonalEdgeStyle;startArrow=none;endArrow=none;exitX=-0.038;exitY=0.5;exitPerimeter=0;entryX=1.009;entryY=0.874;entryPerimeter=0;lucidId=ychIamCpY1QY;" edge="1" parent="1" source="vk8rcurgkz79nQ1yW3bX-20" target="vk8rcurgkz79nQ1yW3bX-17">
          <mxGeometry width="100" height="100" relative="1" as="geometry">
            <Array as="points" />
          </mxGeometry>
        </mxCell>
        <mxCell id="vk8rcurgkz79nQ1yW3bX-27" value="" style="html=1;jettySize=18;whiteSpace=wrap;fontSize=13;strokeColor=#5E5E5E;strokeWidth=1.5;rounded=1;arcSize=12;edgeStyle=orthogonalEdgeStyle;startArrow=none;endArrow=none;exitX=-0.038;exitY=0.5;exitPerimeter=0;entryX=1.009;entryY=0.484;entryPerimeter=0;lucidId=VchIKaIL9oc5;" edge="1" parent="1" source="vk8rcurgkz79nQ1yW3bX-19" target="vk8rcurgkz79nQ1yW3bX-17">
          <mxGeometry width="100" height="100" relative="1" as="geometry">
            <Array as="points" />
          </mxGeometry>
        </mxCell>
        <mxCell id="vk8rcurgkz79nQ1yW3bX-28" value="1,N" style="html=1;overflow=block;blockSpacing=1;whiteSpace=wrap;fontSize=13;fontColor=#333333;spacing=3.8;strokeOpacity=0;fillOpacity=0;rounded=1;absoluteArcSize=1;arcSize=9;fillColor=#ffffff;strokeWidth=2.3;lucidId=IdhIBPaGFkID;" vertex="1" parent="1">
          <mxGeometry x="834" y="194" width="34" height="25" as="geometry" />
        </mxCell>
        <mxCell id="vk8rcurgkz79nQ1yW3bX-29" value="Cobre" style="html=1;overflow=block;blockSpacing=1;whiteSpace=wrap;rhombus;fontSize=13;fontColor=#333333;spacing=3.8;strokeColor=#5e5e5e;strokeOpacity=100;rounded=1;absoluteArcSize=1;arcSize=9;strokeWidth=2.3;lucidId=gfhIUieICCuI;" vertex="1" parent="1">
          <mxGeometry x="878" y="405" width="105" height="90" as="geometry" />
        </mxCell>
        <mxCell id="vk8rcurgkz79nQ1yW3bX-30" value="" style="html=1;jettySize=18;whiteSpace=wrap;fontSize=13;strokeColor=#5E5E5E;strokeWidth=1.5;rounded=1;arcSize=12;edgeStyle=orthogonalEdgeStyle;startArrow=none;endArrow=none;exitX=0.5;exitY=1.007;exitPerimeter=0;entryX=0.5;entryY=0.006;entryPerimeter=0;lucidId=DXhIksjpn~3h;" edge="1" parent="1" source="vk8rcurgkz79nQ1yW3bX-17" target="vk8rcurgkz79nQ1yW3bX-29">
          <mxGeometry width="100" height="100" relative="1" as="geometry">
            <Array as="points" />
          </mxGeometry>
        </mxCell>
        <mxCell id="vk8rcurgkz79nQ1yW3bX-31" value="carro" style="html=1;overflow=block;blockSpacing=1;whiteSpace=wrap;fontSize=13;fontColor=#333333;spacing=9;strokeColor=#5e5e5e;strokeOpacity=100;rounded=1;absoluteArcSize=1;arcSize=9;strokeWidth=2.3;lucidId=6XhIxHgn2bfa;" vertex="1" parent="1">
          <mxGeometry x="870" y="630" width="120" height="165" as="geometry" />
        </mxCell>
        <mxCell id="vk8rcurgkz79nQ1yW3bX-32" value="1" style="html=1;overflow=block;blockSpacing=1;whiteSpace=wrap;fontSize=13;fontColor=#333333;align=left;spacing=3.8;verticalAlign=top;strokeColor=none;fillOpacity=0;fillColor=#ffffff;strokeWidth=0;lucidId=IYhIC6yVQrLe;" vertex="1" parent="1">
          <mxGeometry x="915" y="300" width="15" height="24" as="geometry" />
        </mxCell>
        <mxCell id="vk8rcurgkz79nQ1yW3bX-33" value="" style="html=1;jettySize=18;whiteSpace=wrap;fontSize=13;strokeColor=#5E5E5E;strokeWidth=1.5;rounded=1;arcSize=12;edgeStyle=orthogonalEdgeStyle;startArrow=none;endArrow=none;exitX=0.5;exitY=-0.007;exitPerimeter=0;entryX=0.5;entryY=0.994;entryPerimeter=0;lucidId=bZhIK0q.LIkg;" edge="1" parent="1" source="vk8rcurgkz79nQ1yW3bX-31" target="vk8rcurgkz79nQ1yW3bX-29">
          <mxGeometry width="100" height="100" relative="1" as="geometry">
            <Array as="points" />
          </mxGeometry>
        </mxCell>
        <mxCell id="vk8rcurgkz79nQ1yW3bX-34" value="1" style="html=1;overflow=block;blockSpacing=1;whiteSpace=wrap;fontSize=13;fontColor=#333333;align=left;spacing=3.8;verticalAlign=top;strokeColor=none;fillOpacity=0;fillColor=#ffffff;strokeWidth=0;lucidId=X1hIkoYL_d3k;" vertex="1" parent="1">
          <mxGeometry x="915" y="585" width="15" height="24" as="geometry" />
        </mxCell>
        <mxCell id="vk8rcurgkz79nQ1yW3bX-35" value="" style="html=1;overflow=block;blockSpacing=1;whiteSpace=wrap;ellipse;fontSize=13;spacing=3.8;strokeColor=#5e5e5e;strokeOpacity=100;fillOpacity=100;rounded=1;absoluteArcSize=1;arcSize=9;rotation=90;fillColor=#1071e5;strokeWidth=2.3;lucidId=g2hIDj.RW5fH;" vertex="1" parent="1">
          <mxGeometry x="968" y="858" width="30" height="30" as="geometry" />
        </mxCell>
        <mxCell id="vk8rcurgkz79nQ1yW3bX-36" value="" style="html=1;overflow=block;blockSpacing=1;whiteSpace=wrap;ellipse;fontSize=13;spacing=3.8;strokeColor=#5e5e5e;strokeOpacity=100;fillOpacity=100;rounded=1;absoluteArcSize=1;arcSize=9;rotation=90;fillColor=#ffffff;strokeWidth=2.3;lucidId=g2hIwBJSzowS;" vertex="1" parent="1">
          <mxGeometry x="920" y="858" width="30" height="30" as="geometry" />
        </mxCell>
        <mxCell id="vk8rcurgkz79nQ1yW3bX-37" value="" style="html=1;overflow=block;blockSpacing=1;whiteSpace=wrap;ellipse;fontSize=13;spacing=3.8;strokeColor=#5e5e5e;strokeOpacity=100;fillOpacity=100;rounded=1;absoluteArcSize=1;arcSize=9;rotation=90;fillColor=#ffffff;strokeWidth=2.3;lucidId=g2hIa4BPcq~S;" vertex="1" parent="1">
          <mxGeometry x="868" y="858" width="30" height="30" as="geometry" />
        </mxCell>
        <mxCell id="vk8rcurgkz79nQ1yW3bX-38" value="" style="html=1;jettySize=18;whiteSpace=wrap;fontSize=13;strokeColor=#5E5E5E;strokeWidth=1.5;rounded=1;arcSize=12;edgeStyle=orthogonalEdgeStyle;startArrow=none;endArrow=none;exitX=-0.038;exitY=0.5;exitPerimeter=0;entryX=0.937;entryY=1.007;entryPerimeter=0;lucidId=W3hIMjaGL7oT;" edge="1" parent="1" source="vk8rcurgkz79nQ1yW3bX-35" target="vk8rcurgkz79nQ1yW3bX-31">
          <mxGeometry width="100" height="100" relative="1" as="geometry">
            <Array as="points" />
          </mxGeometry>
        </mxCell>
        <mxCell id="vk8rcurgkz79nQ1yW3bX-39" value="" style="html=1;jettySize=18;whiteSpace=wrap;fontSize=13;strokeColor=#5E5E5E;strokeWidth=1.5;rounded=1;arcSize=12;edgeStyle=orthogonalEdgeStyle;startArrow=none;endArrow=none;exitX=-0.038;exitY=0.5;exitPerimeter=0;entryX=0.538;entryY=1.007;entryPerimeter=0;lucidId=53hI7r7EWqLt;" edge="1" parent="1" source="vk8rcurgkz79nQ1yW3bX-36" target="vk8rcurgkz79nQ1yW3bX-31">
          <mxGeometry width="100" height="100" relative="1" as="geometry">
            <Array as="points" />
          </mxGeometry>
        </mxCell>
        <mxCell id="vk8rcurgkz79nQ1yW3bX-40" value="" style="html=1;jettySize=18;whiteSpace=wrap;fontSize=13;strokeColor=#5E5E5E;strokeWidth=1.5;rounded=1;arcSize=12;edgeStyle=orthogonalEdgeStyle;startArrow=none;endArrow=none;exitX=-0.038;exitY=0.5;exitPerimeter=0;entryX=0.109;entryY=1.007;entryPerimeter=0;lucidId=-3hIgz_Kg74M;" edge="1" parent="1" source="vk8rcurgkz79nQ1yW3bX-37" target="vk8rcurgkz79nQ1yW3bX-31">
          <mxGeometry width="100" height="100" relative="1" as="geometry">
            <Array as="points" />
          </mxGeometry>
        </mxCell>
        <mxCell id="vk8rcurgkz79nQ1yW3bX-41" value="pode ter" style="html=1;overflow=block;blockSpacing=1;whiteSpace=wrap;rhombus;fontSize=13;fontColor=#333333;spacing=3.8;strokeColor=#5e5e5e;strokeOpacity=100;rounded=1;absoluteArcSize=1;arcSize=9;strokeWidth=2.3;lucidId=s4hINe968UH5;" vertex="1" parent="1">
          <mxGeometry x="585" y="668" width="120" height="90" as="geometry" />
        </mxCell>
        <mxCell id="vk8rcurgkz79nQ1yW3bX-42" value="" style="html=1;jettySize=18;whiteSpace=wrap;fontSize=13;strokeColor=#5E5E5E;strokeWidth=1.5;rounded=1;arcSize=12;edgeStyle=orthogonalEdgeStyle;startArrow=none;endArrow=none;exitX=1.009;exitY=0.5;exitPerimeter=0;entryX=0.009;entryY=0.5;entryPerimeter=0;lucidId=s4hIZ5NlPYuO;" edge="1" parent="1" source="vk8rcurgkz79nQ1yW3bX-44" target="vk8rcurgkz79nQ1yW3bX-41">
          <mxGeometry width="100" height="100" relative="1" as="geometry">
            <Array as="points" />
          </mxGeometry>
        </mxCell>
        <mxCell id="vk8rcurgkz79nQ1yW3bX-43" value="1" style="html=1;overflow=block;blockSpacing=1;whiteSpace=wrap;fontSize=13;fontColor=#333333;spacing=3.8;strokeOpacity=0;fillOpacity=0;rounded=1;absoluteArcSize=1;arcSize=9;fillColor=#ffffff;strokeWidth=2.3;lucidId=s4hI3SzFHKaO;" vertex="1" parent="1">
          <mxGeometry x="419" y="668" width="30" height="45" as="geometry" />
        </mxCell>
        <mxCell id="vk8rcurgkz79nQ1yW3bX-44" value="acidente" style="html=1;overflow=block;blockSpacing=1;whiteSpace=wrap;fontSize=13;fontColor=#333333;spacing=9;strokeColor=#5e5e5e;strokeOpacity=100;rounded=1;absoluteArcSize=1;arcSize=9;strokeWidth=2.3;lucidId=P4hIiWJpBSYQ;" vertex="1" parent="1">
          <mxGeometry x="298" y="630" width="120" height="165" as="geometry" />
        </mxCell>
        <mxCell id="vk8rcurgkz79nQ1yW3bX-45" value="" style="html=1;overflow=block;blockSpacing=1;whiteSpace=wrap;ellipse;fontSize=13;spacing=3.8;strokeColor=#5e5e5e;strokeOpacity=100;fillOpacity=100;rounded=1;absoluteArcSize=1;arcSize=9;fillColor=#1071e5;strokeWidth=2.3;lucidId=P4hIZINeZyl-;" vertex="1" parent="1">
          <mxGeometry x="163" y="630" width="30" height="30" as="geometry" />
        </mxCell>
        <mxCell id="vk8rcurgkz79nQ1yW3bX-46" value="" style="html=1;overflow=block;blockSpacing=1;whiteSpace=wrap;ellipse;fontSize=13;spacing=3.8;strokeColor=#5e5e5e;strokeOpacity=100;fillOpacity=100;rounded=1;absoluteArcSize=1;arcSize=9;fillColor=#ffffff;strokeWidth=2.3;lucidId=P4hIZ8stuiqw;" vertex="1" parent="1">
          <mxGeometry x="163" y="675" width="30" height="30" as="geometry" />
        </mxCell>
        <mxCell id="vk8rcurgkz79nQ1yW3bX-47" value="" style="html=1;overflow=block;blockSpacing=1;whiteSpace=wrap;ellipse;fontSize=13;spacing=3.8;strokeColor=#5e5e5e;strokeOpacity=100;fillOpacity=100;rounded=1;absoluteArcSize=1;arcSize=9;fillColor=#ffffff;strokeWidth=2.3;lucidId=P4hIAywDtE~r;" vertex="1" parent="1">
          <mxGeometry x="163" y="714" width="30" height="30" as="geometry" />
        </mxCell>
        <mxCell id="vk8rcurgkz79nQ1yW3bX-48" value="" style="html=1;overflow=block;blockSpacing=1;whiteSpace=wrap;ellipse;fontSize=13;spacing=3.8;strokeColor=#5e5e5e;strokeOpacity=100;fillOpacity=100;rounded=1;absoluteArcSize=1;arcSize=9;fillColor=#ffffff;strokeWidth=2.3;lucidId=P4hIq_Qy163q;" vertex="1" parent="1">
          <mxGeometry x="163" y="761" width="30" height="30" as="geometry" />
        </mxCell>
        <mxCell id="vk8rcurgkz79nQ1yW3bX-49" value="" style="html=1;jettySize=18;whiteSpace=wrap;fontSize=13;strokeColor=#5E5E5E;strokeWidth=1.5;rounded=1;arcSize=12;edgeStyle=orthogonalEdgeStyle;startArrow=none;endArrow=none;exitX=1.038;exitY=0.5;exitPerimeter=0;entryX=-0.009;entryY=0.091;entryPerimeter=0;lucidId=P4hIHICbNJHq;" edge="1" parent="1" source="vk8rcurgkz79nQ1yW3bX-45" target="vk8rcurgkz79nQ1yW3bX-44">
          <mxGeometry width="100" height="100" relative="1" as="geometry">
            <Array as="points" />
          </mxGeometry>
        </mxCell>
        <mxCell id="vk8rcurgkz79nQ1yW3bX-50" value="" style="html=1;jettySize=18;whiteSpace=wrap;fontSize=13;strokeColor=#5E5E5E;strokeWidth=1.5;rounded=1;arcSize=12;edgeStyle=orthogonalEdgeStyle;startArrow=none;endArrow=none;exitX=1.038;exitY=0.5;exitPerimeter=0;entryX=-0.009;entryY=0.602;entryPerimeter=0;lucidId=P4hITTS5gBik;" edge="1" parent="1" source="vk8rcurgkz79nQ1yW3bX-47" target="vk8rcurgkz79nQ1yW3bX-44">
          <mxGeometry width="100" height="100" relative="1" as="geometry">
            <Array as="points" />
          </mxGeometry>
        </mxCell>
        <mxCell id="vk8rcurgkz79nQ1yW3bX-51" value="" style="html=1;jettySize=18;whiteSpace=wrap;fontSize=13;strokeColor=#5E5E5E;strokeWidth=1.5;rounded=1;arcSize=12;edgeStyle=orthogonalEdgeStyle;startArrow=none;endArrow=none;exitX=1.038;exitY=0.5;exitPerimeter=0;entryX=-0.009;entryY=0.887;entryPerimeter=0;lucidId=P4hIF5GiFdbG;" edge="1" parent="1" source="vk8rcurgkz79nQ1yW3bX-48" target="vk8rcurgkz79nQ1yW3bX-44">
          <mxGeometry width="100" height="100" relative="1" as="geometry">
            <Array as="points" />
          </mxGeometry>
        </mxCell>
        <mxCell id="vk8rcurgkz79nQ1yW3bX-52" value="id" style="html=1;overflow=block;blockSpacing=1;whiteSpace=wrap;fontSize=13;fontColor=#333333;spacing=3.8;strokeOpacity=0;fillOpacity=0;rounded=1;absoluteArcSize=1;arcSize=9;fillColor=#ffffff;strokeWidth=2.3;lucidId=P4hIEyr2CBcs;" vertex="1" parent="1">
          <mxGeometry x="201" y="615" width="75" height="45" as="geometry" />
        </mxCell>
        <mxCell id="vk8rcurgkz79nQ1yW3bX-53" value="" style="html=1;jettySize=18;whiteSpace=wrap;fontSize=13;strokeColor=#5E5E5E;strokeWidth=1.5;rounded=1;arcSize=12;edgeStyle=orthogonalEdgeStyle;startArrow=none;endArrow=none;exitX=1.038;exitY=0.5;exitPerimeter=0;entryX=-0.009;entryY=0.364;entryPerimeter=0;lucidId=P4hIuDRysH~o;" edge="1" parent="1" source="vk8rcurgkz79nQ1yW3bX-46" target="vk8rcurgkz79nQ1yW3bX-44">
          <mxGeometry width="100" height="100" relative="1" as="geometry">
            <Array as="points" />
          </mxGeometry>
        </mxCell>
        <mxCell id="vk8rcurgkz79nQ1yW3bX-54" value="data" style="html=1;overflow=block;blockSpacing=1;whiteSpace=wrap;fontSize=13;fontColor=#333333;spacing=3.8;strokeOpacity=0;fillOpacity=0;rounded=1;absoluteArcSize=1;arcSize=9;fillColor=#ffffff;strokeWidth=2.3;lucidId=P4hIB_xiplFS;" vertex="1" parent="1">
          <mxGeometry x="193" y="660" width="90" height="45" as="geometry" />
        </mxCell>
        <mxCell id="vk8rcurgkz79nQ1yW3bX-55" value="hora" style="html=1;overflow=block;blockSpacing=1;whiteSpace=wrap;fontSize=13;fontColor=#333333;spacing=3.8;strokeOpacity=0;fillOpacity=0;rounded=1;absoluteArcSize=1;arcSize=9;fillColor=#ffffff;strokeWidth=2.3;lucidId=P4hIh_mCXMm.;" vertex="1" parent="1">
          <mxGeometry x="208" y="699" width="60" height="45" as="geometry" />
        </mxCell>
        <mxCell id="vk8rcurgkz79nQ1yW3bX-56" value="local" style="html=1;overflow=block;blockSpacing=1;whiteSpace=wrap;fontSize=13;fontColor=#333333;spacing=3.8;strokeOpacity=0;fillOpacity=0;rounded=1;absoluteArcSize=1;arcSize=9;fillColor=#ffffff;strokeWidth=2.3;lucidId=P4hIIgRq0KQY;" vertex="1" parent="1">
          <mxGeometry x="201" y="744" width="75" height="45" as="geometry" />
        </mxCell>
        <mxCell id="vk8rcurgkz79nQ1yW3bX-57" value="" style="html=1;jettySize=18;whiteSpace=wrap;fontSize=13;strokeColor=#5E5E5E;strokeWidth=1.5;rounded=1;arcSize=12;edgeStyle=orthogonalEdgeStyle;startArrow=none;endArrow=none;exitX=-0.009;exitY=0.5;exitPerimeter=0;entryX=0.991;entryY=0.5;entryPerimeter=0;lucidId=j5hI.Ss7OMlR;" edge="1" parent="1" source="vk8rcurgkz79nQ1yW3bX-31" target="vk8rcurgkz79nQ1yW3bX-41">
          <mxGeometry width="100" height="100" relative="1" as="geometry">
            <Array as="points" />
          </mxGeometry>
        </mxCell>
        <mxCell id="vk8rcurgkz79nQ1yW3bX-58" value="id" style="html=1;overflow=block;blockSpacing=1;whiteSpace=wrap;fontSize=13;fontColor=#333333;spacing=3.8;strokeOpacity=0;fillOpacity=0;rounded=1;absoluteArcSize=1;arcSize=9;fillColor=#ffffff;strokeWidth=2.3;lucidId=k6hID5PdVb5v;" vertex="1" parent="1">
          <mxGeometry x="971" y="885" width="23" height="45" as="geometry" />
        </mxCell>
        <mxCell id="vk8rcurgkz79nQ1yW3bX-59" value="registro" style="html=1;overflow=block;blockSpacing=1;whiteSpace=wrap;fontSize=13;fontColor=#333333;spacing=3.8;strokeOpacity=0;fillOpacity=0;rounded=1;absoluteArcSize=1;arcSize=9;fillColor=#ffffff;strokeWidth=2.3;lucidId=T6hI1e8HU4mo;" vertex="1" parent="1">
          <mxGeometry x="920" y="885" width="32" height="45" as="geometry" />
        </mxCell>
        <mxCell id="vk8rcurgkz79nQ1yW3bX-60" value="marca" style="html=1;overflow=block;blockSpacing=1;whiteSpace=wrap;fontSize=13;fontColor=#333333;spacing=3.8;strokeOpacity=0;fillOpacity=0;rounded=1;absoluteArcSize=1;arcSize=9;fillColor=#ffffff;strokeWidth=2.3;lucidId=y7hIbJdvyaGh;" vertex="1" parent="1">
          <mxGeometry x="863" y="885" width="41" height="45" as="geometry" />
        </mxCell>
      </root>
    </mxGraphModel>
  </diagram>
</mxfile>
